<svg xmlns="http://www.w3.org/2000/svg" width="24" height="24" viewBox="0 0 24 24" fill="none" aria-hidden="true">
  <path d="M15.85 12.65C15.83 10.87 17.3 10.02 17.37 9.98C16.53 8.77 15.24 8.6 14.78 8.58C13.69 8.46 12.64 9.23 12.08 9.23C11.51 9.23 10.66 8.6 9.73 8.62C8.5 8.64 7.35 9.33 6.73 10.4C5.46 12.57 6.41 15.77 7.62 17.5C8.23 18.35 8.94 19.29 9.87 19.25C10.78 19.21 11.13 18.69 12.22 18.69C13.3 18.69 13.63 19.25 14.58 19.23C15.55 19.21 16.15 18.37 16.74 17.52C17.44 16.55 17.72 15.59 17.73 15.54C17.71 15.53 15.87 14.84 15.85 12.65Z" fill="#000000"/>
  <path d="M14.06 7.42C14.55 6.83 14.89 6.03 14.81 5.22C14.11 5.25 13.23 5.7 12.72 6.29C12.26 6.82 11.86 7.65 11.95 8.43C12.74 8.49 13.54 8.02 14.06 7.42Z" fill="#000000"/>
</svg>
