<svg width="18" height="18" viewBox="0 0 24 24" fill="#e8e0d0" xmlns="http://www.w3.org/2000/svg">
  <path d="M15.07 2H8.93C3.33 2 2 3.33 2 8.93v6.14C2 20.67 3.33 22 8.93 22h6.14C20.67 22 22 20.67 22 15.07V8.93C22 3.33 20.67 2 15.07 2zm3.07 13.36h-1.56c-.59 0-.77-.47-1.83-1.54-.92-.89-1.32-.99-1.55-.99-.31 0-.4.09-.4.52v1.41c0 .37-.12.59-1.1.59-1.62 0-3.41-.98-4.67-2.82C5.74 10.34 5.25 8.5 5.25 8.1c0-.23.09-.44.52-.44h1.56c.39 0 .54.18.69.59.76 2.18 2.02 4.09 2.54 4.09.2 0 .29-.09.29-.59V9.88c-.06-1.06-.62-1.15-.62-1.53 0-.18.15-.37.39-.37h2.45c.33 0 .44.18.44.57v3.07c0 .33.15.44.24.44.2 0 .37-.11.74-.48 1.14-1.28 1.95-3.24 1.95-3.24.11-.23.29-.44.68-.44h1.56c.47 0 .57.24.47.57-.2.92-2.12 3.63-2.12 3.63-.17.28-.23.4 0 .71.16.23.71.71 1.07 1.14.66.75 1.17 1.38 1.31 1.81.12.43-.1.65-.53.65z"/>
</svg>
